/* XPM */
static char *_8fdc3d1354e469ed384f593679ffe86S4FkPxyVeQh0SDwL[] = {
/* columns rows colors chars-per-pixel */
"64 64 5 1 ",
"  c None",
". c #201C17",
"X c #D2CB17",
"o c #A0937B",
"O c #F1EEE8",
/* pixels */
"                       OOOOXXXXXXXXXXOOOO                       ",
"                    OOOXXXXXXXXXXXXXXXXXXOOO                    ",
"                  OOXXXXXXXXXXXXXXXXXXXXXXXXOO                  ",
"                OOXXXXXXXXXXXXXXXXXXXXXXXXXXXXOO                ",
"              OOXXXXXXXXXXXXXXXXXXXXXXXXXXXXXXXXOO              ",
"             OXXXXXXXXXXXXXXXXXXXXXXXXXXXXXXXXXXXXO             ",
"            OXXXXXXXXXXXXXXXXXXXXXXXXXXXXXXXXXXXXXXO            ",
"           OXXXXXXXXXXXXXXXXXXXXXXXXXXXXXXXXXXXXXXXXO           ",
"         OOXXXXXXXXXXXXXXXXXXXXXXXXXXXXXXXXXXXXXXXXXXOO         ",
"        OXXXXXXXXXXXXXXXXXXXXXXXXXXXXXXXXXXXXXXXXXXXXXXO        ",
"        OXXXXXXXXXXXXXXXXXXXXXXXXXXXXXXXXXXXXXXXXXXXXXXO        ",
"       OXXXXXXXXXXXXXXXXXXXXXXXXXXXXXXXXXXXXXXXXXXXo.oXXO       ",
"      OXXXXXXXXXXXXXXXXXXXXXXXXXXXXXXXXXXXXXXXXXXXo..oXXXO      ",
"     OXXXXXXXXXXXXXXXXXXXXXXXXXXXXXXXXXXXXXXXXXXX.....XXXXO     ",
"     OXXXXXXXXXXXXXXXXXXXXXXXXXXXXXXXXXXXXXXXXX.......XXXXX     ",
"    OXXXXXXXXXXXXXXXXXXXXXXXXXXXXXXXXXXXXXXXo.........XXXXXO    ",
"   OXXXXXXXXXXXXXXXXXXXXXXXXXXXXXXXXXXXXXo.......oo...XXXXXXO   ",
"   OXXXXXXXXXXXXXXXXXXXXXXXXXXXXXXXXXXo..........ooo..XXXXXXO   ",
"  OXXXXXXXXXXXXXXXXXXXXXXXXXXXXXXXXo.............ooo.oXXXXXXXO  ",
"  OXXXXXXXXXXXXXXXXXXXXXXXXXXXXXo................oooooXXXXXXXO  ",
"OOOXXXXXXXXXXXXXXoo.......ooo......................oooXXXXXXXXO ",
"OOOOOOOOOOOOOooo...................................oooXXXXXXXXO ",
" OXOOOOOOOOOOOo.....................................ooXXXXXXXXO ",
" OXXOOOoooOOoo......................................ooXXXXXXXXX ",
"OXXXXXOooooo.........................................ooXXXXXXXXO",
"OXXXXXXXo....................o.......................ooXXXXXXXXO",
"OXXXXXXXXoo..................oo........................oXXXXXXXO",
"XXXXXXXXXXXoo................Oooo......................oXXXXXXXX",
"XXXXXXXXXXXXoo..............oOOOOooo...................oXXXXXXXX",
"XXXXXXXXXXXXXoo.............oOOOOOooooo................oXXXXXXXX",
"XXXXXXXXXXXXXoo.............oOOOOOOOooooo..............oXXXXXXXX",
"XXXXXXXXXXXXXXo............oOOOOOOOOOOOooo............ooXXXXXXXX",
"XXXXXXXXXXXXXXXo..........oOOOOOOOOOOOOOooo.........oooOXXXXXXXX",
"XXXXXXXXXXXXXXXXo.........oOOOOOOOOOOoo.....ooooooooOOOOXXXXXXXX",
"XXXXXXXXXXXXXXXXo.........OOOOOOOOOooo....ooOOOOooooOOOOXXXXXXXX",
"XXXXXXXXXXXXXXXXo........oOOOOOOOOoooo....oOOOOOoooOOOOOXXXXXXXX",
"XXXXXXXXXXXXXXXX......o..oOOOOOOOoooooo..oOOOOOOoooOOOOXXXXXXXXX",
"OXXXXXXXXXXXXXXX..ooooo...oOOOOOOOOooooooOOOOOOOoooOOOOXXXXXXXXO",
"OXXXXXXXXXXXXXXoooOOOooo.ooOOOOOOOOooooOOOOOOOOoooOOOOOXXXXXXXXO",
"OXXXXXXXXXXXXXXXooOOOOoooooOOOOOOOOoOOOOOOOOOOOoooOOOOoXXXXXXXXO",
"OOXXXXXXXXXXXXXXoOOOOOOooOOOOOOOOOOOOOOOOOOOOOooooOOOOXXXXXXXXXO",
" OXXXXXXXXXXXXXXoOOOOOOOOOOOOOOOOOOOOOOOOOOOOooooooooXXXXXXXXXO ",
" OXXXXXXXXXXXXXXXOOOOOOOOOOOOOOOOOOOOOOOOOOOoooooooooXXXXXXXXXO ",
" OXXXXXXXXXXXXXXXOOOOOOOOOOOOOOOOoOOOOOOOOooooooooooXXXXXXXXXXO ",
"  OXXXXXXXXXXXXXXXOOOOOOOOOOOOOOooOOOOOOOooooooooXXXXXXXXXXXXO  ",
"  OXXXXXXXXXXXXXXXOOOOOOOOOOOOOo.ooOOOOOOooooooXXXXXXXXXXXXXXO  ",
"   OXXXXXXXXXXXXXXXOOOOOOOOOOOo...oOOOOOooooooXXXXXXXXXXXXXXO   ",
"   OXXXXXXXXXXXXXXXXXXXOOOOOOoo..ooOOooooooooXXXXXXXXXXXXXXXO   ",
"    OXXXXXXXXXXXXXXXXXXXXOOOOOooooOOooooooooXXXXXXXXXXXXXXXO    ",
"    OOXXXXXXXXXXXXXXXXXXXXOOOOOooOooooooooooXXXXXXXXXXXXXXXO    ",
"     OXXXXXXXXXXXXXXXXXXXXXOOOOooooooooooooXXXXXXXXXXXXXXXO     ",
"      OXXXXXXXXXXXXXXXXXXXXXOOoooooooooooXXXXXXXXXXXXXXXXO      ",
"       OXXXXXXXXXXXXXXXXXXXXXXoooooooooXXXXXXXXXXXXXXXXXO       ",
"       OXXXXXXXXXXXXXXXXXXXXXXXXXXXXXXXXXXXXXXXXXXXXXXXXO       ",
"        OXXXXXXXXXXXXXXXXXXXXXXXXXXXXXXXXXXXXXXXXXXXXXXO        ",
"         OXXXXXXXXXXXXXXXXXXXXXXXXXXXXXXXXXXXXXXXXXXXXO         ",
"          OOXXXXXXXXXXXXXXXXXXXXXXXXXXXXXXXXXXXXXXXXOO          ",
"            OXXXXXXXXXXXXXXXXXXXXXXXXXXXXXXXXXXXXXXO            ",
"             OXXXXXXXXXXXXXXXXXXXXXXXXXXXXXXXXXXXXO             ",
"              OOXXXXXXXXXXXXXXXXXXXXXXXXXXXXXXXXOO              ",
"                OOXXXXXXXXXXXXXXXXXXXXXXXXXXXXOO                ",
"                  OOXXXXXXXXXXXXXXXXXXXXXXXXOO                  ",
"                    OOOXXXXXXXXXXXXXXXXXXOOO                    ",
"                       OOOXXXXXXXXXXXXOOO                       "
};
