/* XPM */
static char *_34b498726ed4b8cc5a13b57cfe19c38KWxDl3WxbGfObmoB[] = {
/* columns rows colors chars-per-pixel */
"128 128 5 1 ",
"  c None",
". c #1F1C17",
"X c #D2CB17",
"o c #A1947E",
"O c #F1EEE8",
/* pixels */
"                                                    OOOOXXXXXXXXXXXXXXXXOOOO                                                    ",
"                                               OOOOXXXXXXXXXXXXXXXXXXXXXXXXXXOOOO                                               ",
"                                            OOOXXXXXXXXXXXXXXXXXXXXXXXXXXXXXXXXXXOOO                                            ",
"                                         OOXXXXXXXXXXXXXXXXXXXXXXXXXXXXXXXXXXXXXXXXXXOO                                         ",
"                                       OOXXXXXXXXXXXXXXXXXXXXXXXXXXXXXXXXXXXXXXXXXXXXXXOO                                       ",
"                                    OOXXXXXXXXXXXXXXXXXXXXXXXXXXXXXXXXXXXXXXXXXXXXXXXXXXXXOO                                    ",
"                                  OOXXXXXXXXXXXXXXXXXXXXXXXXXXXXXXXXXXXXXXXXXXXXXXXXXXXXXXXXOO                                  ",
"                                 OXXXXXXXXXXXXXXXXXXXXXXXXXXXXXXXXXXXXXXXXXXXXXXXXXXXXXXXXXXXXO                                 ",
"                               OXXXXXXXXXXXXXXXXXXXXXXXXXXXXXXXXXXXXXXXXXXXXXXXXXXXXXXXXXXXXXXXXO                               ",
"                             OOXXXXXXXXXXXXXXXXXXXXXXXXXXXXXXXXXXXXXXXXXXXXXXXXXXXXXXXXXXXXXXXXXXOO                             ",
"                            OXXXXXXXXXXXXXXXXXXXXXXXXXXXXXXXXXXXXXXXXXXXXXXXXXXXXXXXXXXXXXXXXXXXXXXO                            ",
"                          OOXXXXXXXXXXXXXXXXXXXXXXXXXXXXXXXXXXXXXXXXXXXXXXXXXXXXXXXXXXXXXXXXXXXXXXXXOO                          ",
"                         OXXXXXXXXXXXXXXXXXXXXXXXXXXXXXXXXXXXXXXXXXXXXXXXXXXXXXXXXXXXXXXXXXXXXXXXXXXXXO                         ",
"                        OXXXXXXXXXXXXXXXXXXXXXXXXXXXXXXXXXXXXXXXXXXXXXXXXXXXXXXXXXXXXXXXXXXXXXXXXXXXXXXO                        ",
"                       OXXXXXXXXXXXXXXXXXXXXXXXXXXXXXXXXXXXXXXXXXXXXXXXXXXXXXXXXXXXXXXXXXXXXXXXXXXXXXXXXO                       ",
"                     OXXXXXXXXXXXXXXXXXXXXXXXXXXXXXXXXXXXXXXXXXXXXXXXXXXXXXXXXXXXXXXXXXXXXXXXXXXXXXXXXXXXXO                     ",
"                    OXXXXXXXXXXXXXXXXXXXXXXXXXXXXXXXXXXXXXXXXXXXXXXXXXXXXXXXXXXXXXXXXXXXXXXXXXXXXXXXXXXXXXXO                    ",
"                   OXXXXXXXXXXXXXXXXXXXXXXXXXXXXXXXXXXXXXXXXXXXXXXXXXXXXXXXXXXXXXXXXXXXXXXXXXXXXXXXXXXXXXXXXO                   ",
"                  OXXXXXXXXXXXXXXXXXXXXXXXXXXXXXXXXXXXXXXXXXXXXXXXXXXXXXXXXXXXXXXXXXXXXXXXXXXXXXXXXXXXXXXXXXXO                  ",
"                 OXXXXXXXXXXXXXXXXXXXXXXXXXXXXXXXXXXXXXXXXXXXXXXXXXXXXXXXXXXXXXXXXXXXXXXXXXXXXXXXXXXXXXXXXXXXXO                 ",
"                OXXXXXXXXXXXXXXXXXXXXXXXXXXXXXXXXXXXXXXXXXXXXXXXXXXXXXXXXXXXXXXXXXXXXXXXXXXXXXXXXXXXXXXXXXXXXXXO                ",
"               OXXXXXXXXXXXXXXXXXXXXXXXXXXXXXXXXXXXXXXXXXXXXXXXXXXXXXXXXXXXXXXXXXXXXXXXXXXXXXXXXXXXXXXXXXooXXXXXO               ",
"               OXXXXXXXXXXXXXXXXXXXXXXXXXXXXXXXXXXXXXXXXXXXXXXXXXXXXXXXXXXXXXXXXXXXXXXXXXXXXXXXXXXXXXXXX...XXXXXO               ",
"              OXXXXXXXXXXXXXXXXXXXXXXXXXXXXXXXXXXXXXXXXXXXXXXXXXXXXXXXXXXXXXXXXXXXXXXXXXXXXXXXXXXXXXXXo....XXXXXXO              ",
"             OXXXXXXXXXXXXXXXXXXXXXXXXXXXXXXXXXXXXXXXXXXXXXXXXXXXXXXXXXXXXXXXXXXXXXXXXXXXXXXXXXXXXXXXo.....XXXXXXXO             ",
"            OXXXXXXXXXXXXXXXXXXXXXXXXXXXXXXXXXXXXXXXXXXXXXXXXXXXXXXXXXXXXXXXXXXXXXXXXXXXXXXXXXXXXXXX...o...oXXXXXXXO            ",
"           OXXXXXXXXXXXXXXXXXXXXXXXXXXXXXXXXXXXXXXXXXXXXXXXXXXXXXXXXXXXXXXXXXXXXXXXXXXXXXXXXXXXXXXo...o....oXXXXXXXXO           ",
"           OXXXXXXXXXXXXXXXXXXXXXXXXXXXXXXXXXXXXXXXXXXXXXXXXXXXXXXXXXXXXXXXXXXXXXXXXXXXXXXXXXXXXX...........XXXXXXXXO           ",
"          OXXXXXXXXXXXXXXXXXXXXXXXXXXXXXXXXXXXXXXXXXXXXXXXXXXXXXXXXXXXXXXXXXXXXXXXXXXXXXXXXXXXXo............XXXXXXXXXO          ",
"         OXXXXXXXXXXXXXXXXXXXXXXXXXXXXXXXXXXXXXXXXXXXXXXXXXXXXXXXXXXXXXXXXXXXXXXXXXXXXXXXXXXXo..............XXXXXXXXXXO         ",
"         OXXXXXXXXXXXXXXXXXXXXXXXXXXXXXXXXXXXXXXXXXXXXXXXXXXXXXXXXXXXXXXXXXXXXXXXXXXXXXXXXXo...............oXXXXXXXXXXO         ",
"        OXXXXXXXXXXXXXXXXXXXXXXXXXXXXXXXXXXXXXXXXXXXXXXXXXXXXXXXXXXXXXXXXXXXXXXXXXXXXXXXo..................oXXXXXXXXXXXO        ",
"        OXXXXXXXXXXXXXXXXXXXXXXXXXXXXXXXXXXXXXXXXXXXXXXXXXXXXXXXXXXXXXXXXXXXXXXXXXXXXo.............oooo....oXXXXXXXXXXXO        ",
"       OXXXXXXXXXXXXXXXXXXXXXXXXXXXXXXXXXXXXXXXXXXXXXXXXXXXXXXXXXXXXXXXXXXXXXXXXXo.................ooo.....oXXXXXXXXXXXXO       ",
"       OXXXXXXXXXXXXXXXXXXXXXXXXXXXXXXXXXXXXXXXXXXXXXXXXXXXXXXXXXXXXXXXXXXXXXXo....................ooooo...oXXXXXXXXXXXXX       ",
"      OXXXXXXXXXXXXXXXXXXXXXXXXXXXXXXXXXXXXXXXXXXXXXXXXXXXXXXXXXXXXXXXXXXXXXo.......................ooooo..oXXXXXXXXXXXXXO      ",
"      OXXXXXXXXXXXXXXXXXXXXXXXXXXXXXXXXXXXXXXXXXXXXXXXXXXXXXXXXXXXXXXXXXoo..........................oooo...XXXXXXXXXXXXXXX      ",
"     OXXXXXXXXXXXXXXXXXXXXXXXXXXXXXXXXXXXXXXXXXXXXXXXXXXXXXXXXXXXXXXXoo...........................oo..oooooXXXXXXXXXXXXXXXO     ",
"     OXXXXXXXXXXXXXXXXXXXXXXXXXXXXXXXXXXXXXXXXXXXXXXXXXXXXXXXXXXXXo................................oo..ooooXXXXXXXXXXXXXXXO     ",
"    OXXXXXXXXXXXXXXXXXXXXXXXXXXXXXXXXXXXXXXXXXXXXXXXXXXXXXXXXXo....................................ooooooooXXXXXXXXXXXXXXXXO    ",
"    OXXXXXXXXXXXXXXXXXXXXXXXXXXXXXXXXXoo..........oooooooooo.....................................oooo..ooooXXXXXXXXXXXXXXXXO    ",
" OOOXXXXXXXXXXXXXXXXXXXXXXXXXXXXoo.....................................................................oooooXXXXXXXXXXXXXXXXO   ",
" OOOOOOOOOOOOOOXXXXXXXXXXoooooo.......................................................................ooooooXXXXXXXXXXXXXXXXO   ",
"   OOOOOOOOOOOOOOOOOOOOOOOOOoOooo................................................................oooooooooooXXXXXXXXXXXXXXXXO   ",
"  OXXOOOOOOOOOOOOOOOOOOOOOOOOoo........................................................................oooooXXXXXXXXXXXXXXXXXO  ",
"  OXXXOOOOOOOOOOOOOOOOOOOOOoo..............................o............................................ooooXXXXXXXXXXXXXXXXXO  ",
"  OXXXXOOOOOOOOOoooOOOOOOooo...............................o............................................oooooXXXXXXXXXXXXXXXXO  ",
"  OXXXXXXOOOOOoooooooooooo...............................................................................ooooXXXXXXXXXXXXXXXXX  ",
" OXXXXXXXXOOOOooooooooooo................................................................................ooooXXXXXXXXXXXXXXXXXO ",
" OXXXXXXXXXXOOOoooooooo....................................o.............................................oooooXXXXXXXXXXXXXXXXO ",
" OXXXXXXXXXXXXOoo..........................................o.............................................oooooXXXXXXXXXXXXXXXXO ",
" XXXXXXXXXXXXXXXooo........................................o.............................................oo.ooXXXXXXXXXXXXXXXXX ",
"OXXXXXXXXXXXXXXXXXooo.....................................oo..o..............................................ooXXXXXXXXXXXXXXXXO",
"OXXXXXXXXXXXXXXXXXXXXoo...................................ooo..o..............................................oXXXXXXXXXXXXXXXXO",
"OXXXXXXXXXXXXXXXXXXXXXXo..................................oOoooooo.............................................XXXXXXXXXXXXXXXXO",
"OXXXXXXXXXXXXXXXXXXXXXXoooo...............................oOOOOoooo............................................oXXXXXXXXXXXXXXXO",
"OXXXXXXXXXXXXXXXXXXXXXXXoooo.............................oOOOOOOOooooo.........................................oXXXXXXXXXXXXXXXO",
"XXXXXXXXXXXXXXXXXXXXXXXXXooo.............................oOOOOOOOOOoooooo..o..o................................oXXXXXXXXXXXXXXXO",
"XXXXXXXXXXXXXXXXXXXXXXXXXooo.............................oOOOOOOOOOOooooooooooo...............................ooXXXXXXXXXXXXXXXX",
"XXXXXXXXXXXXXXXXXXXXXXXXXoooooo..........................oOOOOOOOOOOooooooooooo...............................ooXXXXXXXXXXXXXXXX",
"XXXXXXXXXXXXXXXXXXXXXXXXXXooooo.........................ooOOOOOOOOOOOOOooooooo..oo............................ooXXXXXXXXXXXXXXXX",
"XXXXXXXXXXXXXXXXXXXXXXXXXXooooo......................oooooOOOOOOOOOOOOOOooOoooooooo...........................ooXXXXXXXXXXXXXXXX",
"XXXXXXXXXXXXXXXXXXXXXXXXXXXoooo.......................oooOOOOOOOOOOOOOOOOOOOOOooooo..........................oooXXXXXXXXXXXXXXXX",
"XXXXXXXXXXXXXXXXXXXXXXXXXXXXooo....................o..ooOOOOOOOOOOOOOOOOOOOOOOOoooooo.......................ooooXXXXXXXXXXXXXXXX",
"XXXXXXXXXXXXXXXXXXXXXXXXXXXXXoooo..................o.ooOOOOOOOOOOOOOOOOOOOOOOOOOOOoooo...................oooooooXXXXXXXXXXXXXXXX",
"XXXXXXXXXXXXXXXXXXXXXXXXXXXXXXooo....................oOOOOOOOOOOOOOOOOOOOOOOOOOOooooo.......oo.......oooooooooOOXXXXXXXXXXXXXXXX",
"XXXXXXXXXXXXXXXXXXXXXXXXXXXXXXXooo................o.ooOOOOOOOOOOOOOOOOOOOOOOOoo...........oooooooooooooooOOooOOXXXXXXXXXXXXXXXXX",
"XXXXXXXXXXXXXXXXXXXXXXXXXXXXXXXoo..................oooOOOOOOOOOOOOOOOOOOooOoo........o..ooOOOoooooooooooOOOOOOOXXXXXXXXXXXXXXXXX",
"XXXXXXXXXXXXXXXXXXXXXXXXXXXXXXXXoo.................ooOOOOOOOOOOOOOOOOOOooooo.......oooooOOOOOOooooooooooOOOOOOOXXXXXXXXXXXXXXXXX",
"XXXXXXXXXXXXXXXXXXXXXXXXXXXXXXXXX..................ooOOOOOOOOOOOOOOOOooooo..........ooOOOOOOOOOooooooooOOOOOOOOXXXXXXXXXXXXXXXXX",
"XXXXXXXXXXXXXXXXXXXXXXXXXXXXXXXXX..................ooOOOOOOOOOOOOOOOooooo..oo.......ooOOOOOOOOOooooooooOOOOOOOOXXXXXXXXXXXXXXXXO",
"OXXXXXXXXXXXXXXXXXXXXXXXXXXXXXXXX................ooooOOOOOOOOOOOOOOoooooo..oo.......oOOOOOOOOOOoooooooOOOOOOOOOXXXXXXXXXXXXXXXXO",
"OXXXXXXXXXXXXXXXXXXXXXXXXXXXXXXXo...........oooo.oooOOOOOOOOOOOOOOOooooooo.ooo.....oOOOOOOOOOOOooooooooOOOOOOOOXXXXXXXXXXXXXXXXO",
"OXXXXXXXXXXXXXXXXXXXXXXXXXXXXXXX..........oooo.....oOOOOOOOOOOOOOOOooooooo.oooo....oOOOOOOOOOOOoooooooOOOOOOOOOXXXXXXXXXXXXXXXXO",
"OXXXXXXXXXXXXXXXXXXXXXXXXXXXXXXo.........ooooo......oOOOOOOOOOOOOOOooOoo.oo.oooooooOOOOOOOOOOOoOoooooooOOOOOOOOXXXXXXXXXXXXXXXXO",
"OXXXXXXXXXXXXXXXXXXXXXXXXXXXXXXo....ooooooooooo.....ooOOOOOOOOOOOOOOOOoooooo.ooooOOOOOOOOOOOOOOooooooooOOOOOOOXXXXXXXXXXXXXXXXXO",
" XXXXXXXXXXXXXXXXXXXXXXXXXXXXXXo.oooOOOOOOooooo....oooOOOOOOOOOOOOOOOOoooooooooOOOOOOOOOOOOOOOOooooooOOOOOOOOOXXXXXXXXXXXXXXXXX ",
" OXXXXXXXXXXXXXXXXXXXXXXXXXXXXXo.ooOOOOOOOo..ooo..ooooOOOOOOOOOOOOOOOOooooOOOOOOOOOOOOOOOOOOOOooooooOOOOOOOOOOXXXXXXXXXXXXXXXXO ",
" OXXXXXXXXXXXXXXXXXXXXXXXXXXXXXo.ooOOOOOOOOo..oooooooooOOOOOOOOOOOOOOOoooOOOOOOOOOOOOOOOOOOOOoooooooOOOOOOOOooXXXXXXXXXXXXXXXXO ",
" OXXXXXXXXXXXXXXXXXXXXXXXXXXXXXo.ooOOOOOOOOOo..ooooooooOOOOOOOOOOOOOOoooOOOOOOOOOOOOOOOOOOOOOoooooooOOOOOOOOOXXXXXXXXXXXXXXXXXO ",
"  OXXXXXXXXXXXXXXXXXXXXXXXXXXXXXoooOOOOOOOOOOOooooooOOOOOOOOOOOOOOOOOOOOOOOOOOOOOOOOOOOOOOOOOooooooooOOOOOOOoXXXXXXXXXXXXXXXXX  ",
"  OXXXXXXXXXXXXXXXXXXXXXXXXXXXXXooOOOOOOOOOOOOOOOOOOOOOOOOOOOOOOOOOOOOOOOOOOOOOOOOOOOOOOOOOOoooooooooooooOOOXXXXXXXXXXXXXXXXXO  ",
"  OXXXXXXXXXXXXXXXXXXXXXXXXXXXXXXoOOOOOOOOOOOOOOOOOOOOOOOOOOOOOOOOOOOOOOOOOOOOOOOOOOOOOOOOOooooooooooooooooXXXXXXXXXXXXXXXXXXO  ",
"  OXXXXXXXXXXXXXXXXXXXXXXXXXXXXXXoOOOOOOOOOOOOOOOOOOOOOOOOOOOOOOOOOOOOOOOOOOOOOOOOOOOOOOOooooooooooooooooooXXXXXXXXXXXXXXXXXXO  ",
"   OXXXXXXXXXXXXXXXXXXXXXXXXXXXXXoOOOOOOOOOOOOOOOOOOOOOOOOOOOOOOOOOOOOOOOOOOOOOOOOOOOOOOOoooooooooooooooooXXXXXXXXXXXXXXXXXXO   ",
"   OXXXXXXXXXXXXXXXXXXXXXXXXXXXXXXOOOOOOOOOOOOOOOOOOOOOOOOOOOOOOOOOOOOOOOOOOOOOOOOOOOOOooooooooooooooooooXXXXXXXXXXXXXXXXXXXO   ",
"   OXXXXXXXXXXXXXXXXXXXXXXXXXXXXXXOOOOOOOOOOOOOOOOOOOOOOOOOOOOOOOOOOoOOOOOOOOOOOOOOOOoooooooooooooooooooXXXXXXXXXXXXXXXXXXXXO   ",
"    OXXXXXXXXXXXXXXXXXXXXXXXXXXXXXXOOOOOOOOOOOOOOOOOOOOOOOOOOOOOOooooOOOOOOOOOOOOOOOOooooooooooooooooooXXXXXXXXXXXXXXXXXXXXO    ",
"    OXXXXXXXXXXXXXXXXXXXXXXXXXXXXXXOOOOOOOOOOOOOOOOOOOOOOOOOOOOOOooooOOOOOOOOOOOOOOOooooooooooooooooXXXXXXXXXXXXXXXXXXXXXXXO    ",
"     OXXXXXXXXXXXXXXXXXXXXXXXXXXXXXXOOOOOOOOOOOOOOOOOOOOOOOOOOOooooooOOOOOOOOOOOOOoooooooooooooooXXXXXXXXXXXXXXXXXXXXXXXXXX     ",
"     OXXXXXXXXXXXXXXXXXXXXXXXXXXXXXXOOOOOOOOOOOOOOOOOOOOOOOOOOooo.oooooOOOOOOOOOOooooooooooooooXXXXXXXXXXXXXXXXXXXXXXXXXXXO     ",
"     OXXXXXXXXXXXXXXXXXXXXXXXXXXXXXXXOOOOOOOOOOOOOOOOOOOOOOOOooo...ooooOOOOOOOOoOOOOooooooooooXXXXXXXXXXXXXXXXXXXXXXXXXXXXO     ",
"      OXXXXXXXXXXXXXXXXXXXXXXXXXXXXXXXOOOOOOOOOOOOOOOOOOOOOOooo....ooooOOOOooOOOOOooooooooooXXXXXXXXXXXXXXXXXXXXXXXXXXXXXO      ",
"      OXXXXXXXXXXXXXXXXXXXXXXXXXXXXXXXXOOOOOOOOOOOOOOOOOOOOOo.......oooOOOOOOOOoooooooooooooXXXXXXXXXXXXXXXXXXXXXXXXXXXXXO      ",
"       OXXXXXXXXXXXXXXXXXXXXXXXXXXXXXXXXXOOOOOOOOOOOOOOOOOoOoo....oooooOOOOOoooooooooooooooXXXXXXXXXXXXXXXXXXXXXXXXXXXXXO       ",
"        OXXXXXXXXXXXXXXXXXXXXXXXXXXXXXXXXXXXXXXXOOOOOOOOOOOooooooooooooOOoooooooooooooooooXXXXXXXXXXXXXXXXXXXXXXXXXXXXXX        ",
"        OXXXXXXXXXXXXXXXXXXXXXXXXXXXXXXXXXXXXXXXXXOOOOOOOOOOoooooooooOOooooooooooooooooooXXXXXXXXXXXXXXXXXXXXXXXXXXXXXXO        ",
"         OXXXXXXXXXXXXXXXXXXXXXXXXXXXXXXXXXXXXXXXXXOOOOOOOOOOooooooOOOOooooooooooooooooooXXXXXXXXXXXXXXXXXXXXXXXXXXXXXO         ",
"         OXXXXXXXXXXXXXXXXXXXXXXXXXXXXXXXXXXXXXXXXXXOOOOOOOOOoooooOOOoooooooooooooooooooXXXXXXXXXXXXXXXXXXXXXXXXXXXXXXO         ",
"          OXXXXXXXXXXXXXXXXXXXXXXXXXXXXXXXXXXXXXXXXXOOOOOOOOOOoooooooooooooooooooooooooXXXXXXXXXXXXXXXXXXXXXXXXXXXXXXO          ",
"           OXXXXXXXXXXXXXXXXXXXXXXXXXXXXXXXXXXXXXXXXXOOOOOOOooooooooooooooooooooooooooXXXXXXXXXXXXXXXXXXXXXXXXXXXXXXO           ",
"           OXXXXXXXXXXXXXXXXXXXXXXXXXXXXXXXXXXXXXXXXXOOOOOOOOooooooooooooooooooooooooXXXXXXXXXXXXXXXXXXXXXXXXXXXXXXXO           ",
"            OXXXXXXXXXXXXXXXXXXXXXXXXXXXXXXXXXXXXXXXXXOOOOOOOoooooooooooooooooooooXXXXXXXXXXXXXXXXXXXXXXXXXXXXXXXXXO            ",
"             OXXXXXXXXXXXXXXXXXXXXXXXXXXXXXXXXXXXXXXXXXXOOoooooooooooooooooooooooXXXXXXXXXXXXXXXXXXXXXXXXXXXXXXXXXO             ",
"              OXXXXXXXXXXXXXXXXXXXXXXXXXXXXXXXXXXXXXXXXXXXOooooooooooooooooooooXXXXXXXXXXXXXXXXXXXXXXXXXXXXXXXXXXO              ",
"              OOXXXXXXXXXXXXXXXXXXXXXXXXXXXXXXXXXXXXXXXXXXXXXooooooooooooooooXXXXXXXXXXXXXXXXXXXXXXXXXXXXXXXXXXXXO              ",
"               OXXXXXXXXXXXXXXXXXXXXXXXXXXXXXXXXXXXXXXXXXXXXXXXXXXooooooXXXXXXXXXXXXXXXXXXXXXXXXXXXXXXXXXXXXXXXXO               ",
"                OXXXXXXXXXXXXXXXXXXXXXXXXXXXXXXXXXXXXXXXXXXXXXXXXXXXXXXXXXXXXXXXXXXXXXXXXXXXXXXXXXXXXXXXXXXXXXXO                ",
"                 OXXXXXXXXXXXXXXXXXXXXXXXXXXXXXXXXXXXXXXXXXXXXXXXXXXXXXXXXXXXXXXXXXXXXXXXXXXXXXXXXXXXXXXXXXXXXO                 ",
"                  OXXXXXXXXXXXXXXXXXXXXXXXXXXXXXXXXXXXXXXXXXXXXXXXXXXXXXXXXXXXXXXXXXXXXXXXXXXXXXXXXXXXXXXXXXXO                  ",
"                   OXXXXXXXXXXXXXXXXXXXXXXXXXXXXXXXXXXXXXXXXXXXXXXXXXXXXXXXXXXXXXXXXXXXXXXXXXXXXXXXXXXXXXXXXO                   ",
"                    OXXXXXXXXXXXXXXXXXXXXXXXXXXXXXXXXXXXXXXXXXXXXXXXXXXXXXXXXXXXXXXXXXXXXXXXXXXXXXXXXXXXXXXO                    ",
"                     OXXXXXXXXXXXXXXXXXXXXXXXXXXXXXXXXXXXXXXXXXXXXXXXXXXXXXXXXXXXXXXXXXXXXXXXXXXXXXXXXXXXXO                     ",
"                      OXXXXXXXXXXXXXXXXXXXXXXXXXXXXXXXXXXXXXXXXXXXXXXXXXXXXXXXXXXXXXXXXXXXXXXXXXXXXXXXXXXO                      ",
"                        OXXXXXXXXXXXXXXXXXXXXXXXXXXXXXXXXXXXXXXXXXXXXXXXXXXXXXXXXXXXXXXXXXXXXXXXXXXXXXXO                        ",
"                         OXXXXXXXXXXXXXXXXXXXXXXXXXXXXXXXXXXXXXXXXXXXXXXXXXXXXXXXXXXXXXXXXXXXXXXXXXXXXO                         ",
"                          OXXXXXXXXXXXXXXXXXXXXXXXXXXXXXXXXXXXXXXXXXXXXXXXXXXXXXXXXXXXXXXXXXXXXXXXXXXO                          ",
"                            OXXXXXXXXXXXXXXXXXXXXXXXXXXXXXXXXXXXXXXXXXXXXXXXXXXXXXXXXXXXXXXXXXXXXXXO                            ",
"                             OXXXXXXXXXXXXXXXXXXXXXXXXXXXXXXXXXXXXXXXXXXXXXXXXXXXXXXXXXXXXXXXXXXXXO                             ",
"                               OXXXXXXXXXXXXXXXXXXXXXXXXXXXXXXXXXXXXXXXXXXXXXXXXXXXXXXXXXXXXXXXXO                               ",
"                                OOXXXXXXXXXXXXXXXXXXXXXXXXXXXXXXXXXXXXXXXXXXXXXXXXXXXXXXXXXXXXOO                                ",
"                                  OOXXXXXXXXXXXXXXXXXXXXXXXXXXXXXXXXXXXXXXXXXXXXXXXXXXXXXXXXOO                                  ",
"                                    OOXXXXXXXXXXXXXXXXXXXXXXXXXXXXXXXXXXXXXXXXXXXXXXXXXXXXOO                                    ",
"                                      OOXXXXXXXXXXXXXXXXXXXXXXXXXXXXXXXXXXXXXXXXXXXXXXXXOO                                      ",
"                                         OOXXXXXXXXXXXXXXXXXXXXXXXXXXXXXXXXXXXXXXXXXXOO                                         ",
"                                           OOOXXXXXXXXXXXXXXXXXXXXXXXXXXXXXXXXXXXXOOO                                           ",
"                                               OOOXXXXXXXXXXXXXXXXXXXXXXXXXXXXOOO                                               ",
"                                                   OOOOXXXXXXXXXXXXXXXXXXOOOO                                                   "
};
