/* XPM */
static char *_9a78d3c4d604b8fdcd4e271c083d33dkPxuVHMLSAfeVpfy[] = {
/* columns rows colors chars-per-pixel */
"32 32 5 1 ",
"  c None",
". c #2D2920",
"X c #D3CC17",
"o c #D4CD17",
"O c #F1EEE8",
/* pixels */
"          OOoooXXoooOO          ",
"        OOoXXXXXXXXXXoOO        ",
"      OOooooooooooooooooOO      ",
"     OooooooooooooooooooooO     ",
"    OoooooooooooooooooooXooO    ",
"   OoXoooooooooooooooooooXXoO   ",
"  OOXoooooooooooooooooooX..XoO  ",
"  OXoooooooooooooooooXX....XoO  ",
" OoXooooooooooooooXX.......XooO ",
" OXoooooooXXXoXXX.........XoooO ",
"OOXoooXX..................XooooO",
"OXOOOOO...................XXooXO",
"OXoOO......................XooXO",
"oXooXX.........O............ooXo",
"oXooooX.......OOOO..........ooXo",
"XXooooX.......OOOOOO.......XooXo",
"XXoooXoX.....OOOOOOO......OOXoXo",
"oXoooooo.....OOOOO...OOOOOOOooXo",
"oXoooooX.....OOOOO...OOOOOOOooXo",
"OXoooooXOOO..OOOOOOOOOOOOOOXooXO",
"OXXooooXOOOOOOOOOOOOOOOOOOOXooXO",
"OoXoooXXOOOOOOOOOOOOOOOOOOXooooO",
" OXooooXoOOOOOOOXOOOOOOOXXooooO ",
" OoXooooXoOOOOO..OOOOOXoooooooO ",
"  OXoooooXXXoOOOOOOOOXXooooooO  ",
"  OoXoooooooXoOOOOO.XXoXoooooO  ",
"   OoXooooooooXXXXXXooXoooooO   ",
"    OooooooooooooooooooooooO    ",
"     OooooooooooooooooooooO     ",
"      OOooooooooooooooooOO      ",
"        OOoXXXXXXXXXXoOO        ",
"          OOoooXXoooOO          "
};
