/* XPM */
static char *_ee972a62bba42cf8d27b2165af97a66HoDcDXTGpbVUl0nV[] = {
/* columns rows colors chars-per-pixel */
"16 16 5 1 ",
"  c None",
". c black",
"X c #D4CD17",
"o c #D4CD18",
"O c #F1EEE8",
/* pixels */
"    OOooooOO    ",
"  OOoXXXXXXoOO  ",
" OoXXXXXXXXXXoO ",
" OXXXXXXXooX.oO ",
"OoXXoooooo...oXO",
"OOOo.........oXO",
"ooo...........oo",
"XXXo...OOO....oo",
"XXXo..oOOo.OOOoo",
"oXXoOoOOOOOOOOXo",
"OXXXOOOOOOOOOoXO",
"OoXXoOOOOOOooXoO",
" OXXXXoOOOoXXXO ",
" OoXXXXoooXXXoO ",
"  OOoXXXXXXoOO  ",
"    OooooooO    "
};
